<?xml version="1.0"?>
<svg xmlns="http://www.w3.org/2000/svg" id="Capa_1" enable-background="new 0 0 512 512" height="512px" viewBox="0 0 512 512" width="512px" class="hovered-paths"><g><path d="m263.839 102.321c-112.948 0-204.839 91.891-204.839 204.84s91.891 204.839 204.839 204.839 204.839-91.891 204.839-204.839-91.89-204.84-204.839-204.84zm-59.551 127.526c21.351 0 38.722 17.371 38.722 38.722 0 8.284-6.716 15-15 15s-15-6.716-15-15c0-4.809-3.913-8.722-8.722-8.722s-8.722 3.913-8.722 8.722c0 8.284-6.716 15-15 15s-15-6.716-15-15c0-21.352 17.371-38.722 38.722-38.722zm150.627 136.558c-22.834 26.622-56.03 41.89-91.075 41.89-35.044 0-68.239-15.268-91.074-41.888-5.394-6.288-4.669-15.758 1.619-21.151s15.758-4.668 21.151 1.619c17.128 19.968 42.024 31.42 68.303 31.42 26.28 0 51.176-11.453 68.305-31.421 5.394-6.288 14.864-7.012 21.151-1.62 6.288 5.394 7.013 14.864 1.62 21.151zm-7.802-82.837c-8.284 0-15-6.716-15-15 0-4.809-3.913-8.722-8.722-8.722s-8.722 3.913-8.722 8.722c0 8.284-6.716 15-15 15s-15-6.716-15-15c0-21.351 17.371-38.722 38.722-38.722s38.722 17.371 38.722 38.722c0 8.285-6.716 15-15 15z" data-original="#000000" class="hovered-path active-path" data-old_color="#000000" fill="#CBB4FF"/><path d="m387.42 84.261h21.883c8.284 0 15-6.716 15-15s-6.716-15-15-15h-21.883c-8.284 0-15 6.716-15 15s6.716 15 15 15z" data-original="#000000" class="hovered-path active-path" data-old_color="#000000" fill="#CBB4FF"/><path d="m442.21 138.521c8.284 0 15-6.716 15-15v-21.883c0-8.284-6.716-15-15-15s-15 6.716-15 15v21.883c0 8.285 6.716 15 15 15z" data-original="#000000" class="hovered-path active-path" data-old_color="#000000" fill="#CBB4FF"/><path d="m497 54.261h-21.883c-8.284 0-15 6.716-15 15s6.716 15 15 15h21.883c8.284 0 15-6.716 15-15s-6.716-15-15-15z" data-original="#000000" class="hovered-path active-path" data-old_color="#000000" fill="#CBB4FF"/><path d="m442.21 51.883c8.284 0 15-6.716 15-15v-21.883c0-8.284-6.716-15-15-15s-15 6.716-15 15v21.883c0 8.284 6.716 15 15 15z" data-original="#000000" class="hovered-path active-path" data-old_color="#000000" fill="#CBB4FF"/><path d="m32.47 74.261h-17.47c-8.284 0-15 6.716-15 15s6.716 15 15 15h17.47c8.284 0 15-6.716 15-15s-6.716-15-15-15z" data-original="#000000" class="hovered-path active-path" data-old_color="#000000" fill="#CBB4FF"/><path d="m78.742 137.58v-17.47c0-8.284-6.716-15-15-15s-15 6.716-15 15v17.47c0 8.284 6.716 15 15 15s15-6.716 15-15z" data-original="#000000" class="hovered-path active-path" data-old_color="#000000" fill="#CBB4FF"/><path d="m95.013 104.261h17.47c8.284 0 15-6.716 15-15s-6.716-15-15-15h-17.47c-8.284 0-15 6.716-15 15s6.716 15 15 15z" data-original="#000000" class="hovered-path active-path" data-old_color="#000000" fill="#CBB4FF"/><path d="m63.742 73.412c8.284 0 15-6.716 15-15v-17.47c0-8.284-6.716-15-15-15s-15 6.716-15 15v17.47c0 8.284 6.716 15 15 15z" data-original="#000000" class="hovered-path active-path" data-old_color="#000000" fill="#CBB4FF"/></g> </svg>
